<?xml version="1.0" encoding="utf-8"?>
<!-- Generator: Adobe Illustrator 23.0.1, SVG Export Plug-In . SVG Version: 6.00 Build 0)  -->
<svg version="1.1" id="Camada_1" xmlns="http://www.w3.org/2000/svg" xmlns:xlink="http://www.w3.org/1999/xlink" x="0px" y="0px"
	 viewBox="0 0 841.9 595.3" style="enable-background:new 0 0 841.9 595.3;" xml:space="preserve">
<style type="text/css">
	.st0{clip-path:url(#SVGID_2_);fill:url(#SVGID_3_);}
	.st1{clip-path:url(#SVGID_5_);fill:url(#SVGID_6_);}
	.st2{clip-path:url(#SVGID_8_);fill:#FFFFFF;}
	.st3{clip-path:url(#SVGID_8_);fill:#878787;}
	.st4{clip-path:url(#SVGID_10_);fill:url(#SVGID_11_);}
	.st5{clip-path:url(#SVGID_13_);fill:url(#SVGID_14_);}
	.st6{clip-path:url(#SVGID_16_);fill:url(#SVGID_17_);}
	.st7{clip-path:url(#SVGID_19_);fill:#3C3C3B;}
</style>
<g>
	<defs>
		<path id="SVGID_1_" d="M107.1,197.8c-4,4.2-7.2,9.2-9.3,14.7c-1.9,5-2.9,10.3-2.9,16c0,8.7,2.5,16.8,6.8,23.7
			c5.7,9.1,14.5,15.9,24.9,19.1c4.1,1.2,8.4,1.9,12.9,1.9c3.9,0,7.7-0.5,11.3-1.5c18.7-4.9,32.7-21.6,33.3-41.7c0-0.5,0-1,0-1.4
			c0-4-0.5-7.9-1.5-11.6c-5.1-19-22.5-33.1-43.1-33.1C126.8,183.9,115.3,189.2,107.1,197.8"/>
	</defs>
	<clipPath id="SVGID_2_">
		<use xlink:href="#SVGID_1_"  style="overflow:visible;"/>
	</clipPath>
	
		<linearGradient id="SVGID_3_" gradientUnits="userSpaceOnUse" x1="1.452739e-06" y1="595.276" x2="1" y2="595.276" gradientTransform="matrix(89.2794 0 0 -89.2794 94.9219 53374.4102)">
		<stop  offset="0" style="stop-color:#A3195B"/>
		<stop  offset="1" style="stop-color:#D60B52"/>
	</linearGradient>
	<rect x="94.9" y="183.9" class="st0" width="89.3" height="89.3"/>
</g>
<g>
	<defs>
		<path id="SVGID_4_" d="M464,211c-185.6,3.4-286.9,53.3-287.6,57c65.8-23.2,177.5-42.2,289.7-44.2c127.2-2.3,227.8,16.8,292.6,42.8
			c-49-33.1-143.2-55.8-273.6-55.8C478.1,210.8,471.1,210.8,464,211"/>
	</defs>
	<clipPath id="SVGID_5_">
		<use xlink:href="#SVGID_4_"  style="overflow:visible;"/>
	</clipPath>
	
		<linearGradient id="SVGID_6_" gradientUnits="userSpaceOnUse" x1="-6.513610e-07" y1="595.2792" x2="1" y2="595.2792" gradientTransform="matrix(582.1517 -10.5992 -11.2752 -619.2815 6887.8208 368890.125)">
		<stop  offset="0" style="stop-color:#A3195B"/>
		<stop  offset="1" style="stop-color:#D60B52"/>
	</linearGradient>
	<polygon class="st1" points="175.3,210.8 758.5,200.2 759.7,268 176.6,278.6 	"/>
</g>
<g>
	<defs>
		<rect id="SVGID_7_" width="841.9" height="595.3"/>
	</defs>
	<clipPath id="SVGID_8_">
		<use xlink:href="#SVGID_7_"  style="overflow:visible;"/>
	</clipPath>
	<path class="st2" d="M82.6,245.3l-0.3-1.8c10.7-2,21-5.6,30.6-10.8c7.9-4.2,15.2-9.4,21.8-15.4c12.3-11.2,21.7-24.8,27.8-40.5
		l1.7,0.6c-6.2,15.9-15.7,29.8-28.3,41.1c-6.7,6.1-14.2,11.4-22.2,15.6C103.9,239.6,93.4,243.2,82.6,245.3"/>
	<path class="st2" d="M195.4,245.3l0.3-1.8c-10.7-2-21-5.6-30.6-10.8c-7.9-4.2-15.2-9.4-21.8-15.4c-12.3-11.2-21.7-24.8-27.8-40.5
		l-1.7,0.6c6.2,15.9,15.7,29.8,28.3,41.1c6.7,6.1,14.2,11.4,22.2,15.6C174,239.6,184.5,243.2,195.4,245.3"/>
	<path class="st2" d="M149.7,275.1l1.8,0.1c0.7-10.8,3-21.5,7-31.7c3.2-8.3,7.4-16.2,12.6-23.5c9.6-13.6,22-24.6,36.8-32.5l-0.8-1.6
		c-15,8.1-27.6,19.2-37.4,33.1c-5.2,7.4-9.5,15.5-12.8,23.9C152.8,253.2,150.4,264.1,149.7,275.1"/>
	<path class="st2" d="M124,275.1l-1.8,0.1c-0.7-10.8-3-21.5-7-31.7c-3.2-8.3-7.4-16.2-12.6-23.5c-9.6-13.6-22-24.6-36.8-32.5
		l0.8-1.6c15,8.1,27.6,19.2,37.4,33.1c5.2,7.4,9.5,15.5,12.8,23.9C120.9,253.2,123.3,264.1,124,275.1"/>
	<rect x="133.5" y="284.1" class="st3" width="12.1" height="82.2"/>
	<path class="st3" d="M242.4,319v47.3h-12.1v-46.8c0-17.1-10.1-26.9-25.1-26.9c-10.5,0-21.2,5.5-28.3,15.3v58.4h-12.1v-82.2h12.1
		v9.8c7.7-7.8,18.3-12.5,30.4-12.5C228,281.5,242.4,295.9,242.4,319"/>
	<path class="st3" d="M338.2,325.2c0,24.7-19,43.8-43.6,43.8c-24.7,0-43.8-19-43.8-43.8c0-24.4,19-43.2,43.8-43.2
		C319.1,282,338.2,300.9,338.2,325.2 M326,325.2c0-17.6-13.5-32-31.5-32c-18,0-31.5,14.4-31.5,32c0,18.2,13.5,32.7,31.5,32.7
		C312.5,358,326,343.4,326,325.2"/>
	<polygon class="st3" points="385,366.4 373.7,366.4 334.6,284.1 347.6,284.1 379.3,350.9 410.9,284.1 424.1,284.1 	"/>
	<path class="st3" d="M504.4,366.4h-12.1v-9.1c-7.5,7.1-17.4,11.4-29.7,11.4c-23.5,0-42.5-19.2-42.5-43.4c0-24,19-43.2,42.5-43.2
		c12.3,0,22.2,4.3,29.7,11.4v-9.3h12.1V366.4z M492.3,343v-35.4c-6.9-10-16.9-14.9-28.1-14.9c-18.2,0-31.9,14.9-31.9,32.6
		c0,17.8,13.7,32.7,31.9,32.7C475.4,358,485.3,353,492.3,343"/>
</g>
<g>
	<defs>
		<path id="SVGID_9_" d="M527.8,254.2v23.1h-9.3V295h9.3v40.9c0,25.1,13.7,32.6,34,32.6c2,0,4.1,0,10.7-0.5v-17.4
			c-16.7,1.1-23.1-3.7-23.1-16.4V295h24v-17.6h-24v-23.1H527.8z"/>
	</defs>
	<clipPath id="SVGID_10_">
		<use xlink:href="#SVGID_9_"  style="overflow:visible;"/>
	</clipPath>
	
		<linearGradient id="SVGID_11_" gradientUnits="userSpaceOnUse" x1="0" y1="595.2746" x2="1" y2="595.2746" gradientTransform="matrix(0.9557 131.8882 131.8882 -0.9557 -77964.0859 830.7546)">
		<stop  offset="0" style="stop-color:#A3195B"/>
		<stop  offset="1" style="stop-color:#D60B52"/>
	</linearGradient>
	<polygon class="st4" points="573.4,253.8 574.2,368.5 518.6,368.9 517.8,254.2 	"/>
</g>
<g>
	<defs>
		<path id="SVGID_12_" d="M620.7,292.9c8.4,0,19,5.3,20.6,22.8h-41.3C601.9,298.4,612.6,292.9,620.7,292.9 M577.8,323.1
			c0,34.9,24.4,45.4,45.6,45.4c11.9,0,26.9-3.2,38.4-9.6l-8.9-15.8c-8.7,5.2-20.6,7.8-28.8,7.8c-10.1,0-22.8-4.4-23.7-21.4h63.4
			v-7.1c0-32-19.9-47.2-42.4-47.2C598.8,275.2,577.8,290.4,577.8,323.1"/>
	</defs>
	<clipPath id="SVGID_13_">
		<use xlink:href="#SVGID_12_"  style="overflow:visible;"/>
	</clipPath>
	
		<linearGradient id="SVGID_14_" gradientUnits="userSpaceOnUse" x1="0" y1="595.2761" x2="1" y2="595.2761" gradientTransform="matrix(0.9557 131.8882 131.8882 -0.9557 -77889.5234 830.2143)">
		<stop  offset="0" style="stop-color:#A3195B"/>
		<stop  offset="1" style="stop-color:#D60B52"/>
	</linearGradient>
	<polygon class="st5" points="663.8,274.6 664.5,368.5 577.9,369.1 577.2,275.2 	"/>
</g>
<g>
	<defs>
		<path id="SVGID_15_" d="M673.6,322.8c0,35.2,24,45.7,43.6,45.7c12.1,0,25.3-3.4,36.1-9.6l-8.5-15.8c-8.9,5.2-18.7,7.8-27.1,7.8
			c-9.3,0-22.2-5-22.2-28.7c0-23.5,13-29.4,25.3-29.4c7.1,0,14.2,1.1,27.6,6.1l5.3-15.7c-10.1-5.3-22.8-8-34.9-8
			C696.9,275.2,673.6,287.9,673.6,322.8"/>
	</defs>
	<clipPath id="SVGID_16_">
		<use xlink:href="#SVGID_15_"  style="overflow:visible;"/>
	</clipPath>
	
		<linearGradient id="SVGID_17_" gradientUnits="userSpaceOnUse" x1="0" y1="595.275" x2="1" y2="595.275" gradientTransform="matrix(0.9557 131.8882 131.8882 -0.9557 -77796.5859 829.5408)">
		<stop  offset="0" style="stop-color:#A3195B"/>
		<stop  offset="1" style="stop-color:#D60B52"/>
	</linearGradient>
	<polygon class="st6" points="753.7,274.7 754.3,368.5 673.6,369.1 672.9,275.2 	"/>
</g>
<g>
	<defs>
		<rect id="SVGID_18_" width="841.9" height="595.3"/>
	</defs>
	<clipPath id="SVGID_19_">
		<use xlink:href="#SVGID_18_"  style="overflow:visible;"/>
	</clipPath>
	<polygon class="st7" points="134.3,392.3 148.6,392.3 148.7,394.5 136.9,394.5 136.9,402.2 147.5,402.2 147.5,404.4 136.9,404.4 
		136.9,414.1 134.3,414.1 	"/>
	<path class="st7" d="M150.8,406.2c0-5.2,2.5-8.1,7-8.1c4.3,0,6.9,2.4,6.9,8.1v0.8h-11.5c0.1,3.5,1.5,5.4,5.7,5.4
		c2,0,3.9-0.4,4.8-0.8l-0.4,2.1c-0.8,0.3-2.6,0.7-4.5,0.7C153,414.4,150.8,411.5,150.8,406.2 M162.4,405.3c-0.1-3.8-1.8-5.3-4.6-5.3
		c-2.9,0-4.6,1.8-4.7,5.3H162.4z"/>
	<path class="st7" d="M168.7,392.8h2.3v3.1h-2.3V392.8z M168.7,398.4h2.3v15.7h-2.3V398.4z"/>
	<path class="st7" d="M176.3,398.4h2l0.4,2.3c0.9-1.8,2.5-2.6,4.9-2.6c1.1,0,2,0.2,2.4,0.4l0.2,2.2c-0.4-0.2-1.5-0.6-2.8-0.6
		c-2.9,0-4.6,1.5-4.6,4.9v9.1h-2.3V398.4z"/>
	<path class="st7" d="M187.3,409.6c0-2.8,1.9-4.5,5.7-4.5h5.1v-0.9c0-2.7-1.1-4-4.5-4c-1.9,0-4,0.3-5,0.6l0.4-2.1
		c0.9-0.2,2.9-0.6,5-0.6c4.6,0,6.4,2.1,6.4,6v9.9h-2l-0.4-2.5c-0.8,1.7-2.4,2.8-5.4,2.8C189.1,414.4,187.3,412.5,187.3,409.6
		 M198.1,408.1v-1.3h-4.7c-2.6,0-3.7,1-3.7,2.8c0,1.9,1.1,3,3.5,3C196.2,412.6,198.1,411.2,198.1,408.1"/>
	<path class="st7" d="M225.9,392v22.1h-2l-0.4-2.5c-0.5,1.2-2.1,2.7-5.2,2.7c-4.3,0-6.4-2.5-6.4-8.2s2-8.2,6.4-8.2
		c3.1,0,4.6,1.5,5.2,2.8v-8.5L225.9,392z M223.6,406.3c0-4.4-1.4-6.1-4.6-6.1c-3.2,0-4.6,1.8-4.6,6.1s1.4,6.1,4.6,6.1
		C222.2,412.4,223.6,410.6,223.6,406.3"/>
	<path class="st7" d="M230.1,406.2c0-5.2,2.5-8.1,7-8.1c4.3,0,6.9,2.4,6.9,8.1v0.8h-11.5c0.1,3.5,1.5,5.4,5.7,5.4
		c2,0,3.9-0.4,4.8-0.8l-0.4,2.1c-0.8,0.3-2.6,0.7-4.5,0.7C232.2,414.4,230.1,411.5,230.1,406.2 M241.7,405.3
		c-0.1-3.8-1.8-5.3-4.6-5.3c-2.9,0-4.6,1.8-4.7,5.3H241.7z"/>
	<rect x="256.1" y="392.3" class="st7" width="2.5" height="21.8"/>
	<path class="st7" d="M264.2,398.4h2l0.4,2.4c0.8-1.7,2.4-2.6,5.1-2.6c4.1,0,6.1,2.4,6.1,6.6v9.4h-2.3v-9c0-3.4-1.3-5-4.4-5
		c-3.2,0-4.5,1.6-4.5,5v9h-2.3V398.4z"/>
	<path class="st7" d="M281.7,406.3c0-5.6,2.2-8.2,6.9-8.2c4.8,0,6.9,2.5,6.9,8.2s-2.2,8.2-6.9,8.2
		C283.9,414.4,281.7,411.9,281.7,406.3 M293.2,406.3c0-4.4-1.4-6.1-4.6-6.1c-3.2,0-4.5,1.8-4.5,6.1s1.4,6.1,4.5,6.1
		C291.8,412.4,293.2,410.6,293.2,406.3"/>
	<polygon class="st7" points="312.6,398.4 306.2,414.1 303.8,414.1 297.4,398.4 300,398.4 305,411.3 310.1,398.4 	"/>
	<path class="st7" d="M314,409.6c0-2.8,1.9-4.5,5.7-4.5h5.1v-0.9c0-2.7-1.1-4-4.5-4c-1.9,0-4,0.3-5,0.6l0.4-2.1
		c0.9-0.2,2.9-0.6,5-0.6c4.6,0,6.4,2.1,6.4,6v9.9h-2l-0.4-2.5c-0.8,1.7-2.4,2.8-5.4,2.8C315.8,414.4,314,412.5,314,409.6
		 M324.8,408.1v-1.3h-4.7c-2.6,0-3.7,1-3.7,2.8c0,1.9,1.1,3,3.5,3C322.9,412.6,324.8,411.2,324.8,408.1"/>
	<path class="st7" d="M338.6,414.4l-0.4,1.1c1.8,0.1,2.6,1,2.6,2.3c0,1.6-1.2,2.5-3.1,2.5c-1.2,0-2-0.4-2-0.4v-1.3
		c0,0,0.8,0.4,1.9,0.4c1.1,0,1.7-0.4,1.7-1.2c0-0.8-0.5-1.2-1.8-1.2h-0.9l0.7-2.1c-4.2-0.3-6.3-2.9-6.3-8.1c0-5.5,2.4-8.2,7.3-8.2
		c1.8,0,3.4,0.5,4,0.8l0.1,2.1c-0.8-0.4-2.3-0.8-3.9-0.8c-3.5,0-5.1,1.8-5.1,6.1c0,4.3,1.6,6.1,5,6.1c1.8,0,3.6-0.5,4.4-0.9
		l-0.4,2.2C341.9,413.9,340.5,414.3,338.6,414.4"/>
	<path class="st7" d="M345.3,406.3c0-5.6,2.2-8.2,6.9-8.2s6.9,2.5,6.9,8.2s-2.2,8.2-6.9,8.2S345.3,411.9,345.3,406.3 M347.1,395
		c1.3-2,2.2-2.5,3.4-2.5c1.6,0,2.7,1.8,3.8,1.8c0.6,0,1.1-0.3,2.1-1.7l1.3,0.9c-1.3,2-2.2,2.5-3.4,2.5c-1.6,0-2.7-1.8-3.8-1.8
		c-0.7,0-1.2,0.3-2.1,1.7L347.1,395z M356.8,406.3c0-4.4-1.4-6.1-4.6-6.1c-3.2,0-4.5,1.8-4.5,6.1s1.4,6.1,4.5,6.1
		C355.5,412.4,356.8,410.6,356.8,406.3"/>
	<path class="st7" d="M362.3,406.2c0-5.2,2.5-8.1,7-8.1c4.3,0,6.9,2.4,6.9,8.1v0.8h-11.5c0.1,3.5,1.5,5.4,5.7,5.4
		c2,0,3.9-0.4,4.8-0.8l-0.4,2.1c-0.8,0.3-2.6,0.7-4.5,0.7C364.5,414.4,362.3,411.5,362.3,406.2 M374,405.3c-0.1-3.8-1.8-5.3-4.6-5.3
		c-2.9,0-4.6,1.8-4.7,5.3H374z"/>
	<path class="st7" d="M379.6,413.6l-0.4-2.1c1,0.5,3.2,1,5.6,1c3.1,0,4.2-1,4.2-2.5c0-1.4-0.7-2.1-2.9-2.5l-2.8-0.5
		c-3.1-0.6-4.3-2-4.3-4.4c0-2.7,1.9-4.4,6.3-4.4c2.1,0,4,0.4,4.9,0.8l0.1,2.1c-0.8-0.4-2.6-0.9-4.8-0.9c-3.1,0-4.2,1-4.2,2.4
		c0,1.4,0.8,2,2.8,2.5l2.7,0.5c3.2,0.6,4.4,1.9,4.4,4.4c0,2.8-1.9,4.6-6.3,4.6C382.6,414.5,380.5,414,379.6,413.6"/>
	<polygon class="st7" points="415.9,394.5 409.2,394.5 409.2,414.1 406.7,414.1 406.7,394.5 400,394.5 400,392.3 415.9,392.3 	"/>
	<path class="st7" d="M415.6,406.2c0-5.2,2.5-8.1,7-8.1c4.3,0,6.9,2.4,6.9,8.1v0.8H418c0.1,3.5,1.5,5.4,5.7,5.4c2,0,3.9-0.4,4.8-0.8
		l-0.4,2.1c-0.8,0.3-2.6,0.7-4.5,0.7C417.8,414.4,415.6,411.5,415.6,406.2 M427.3,405.3c-0.1-3.8-1.8-5.3-4.6-5.3
		c-2.9,0-4.6,1.8-4.7,5.3H427.3z"/>
	<path class="st7" d="M432.4,406.3c0-5.5,2.4-8.2,7.3-8.2c1.8,0,3.4,0.5,4,0.8l0.1,2.1c-0.8-0.4-2.3-0.8-3.9-0.8
		c-3.5,0-5.1,1.8-5.1,6.1c0,4.3,1.6,6.1,5,6.1c1.8,0,3.6-0.5,4.4-0.9l-0.4,2.2c-0.6,0.3-2.1,0.8-4.2,0.8
		C434.8,414.4,432.4,411.8,432.4,406.3"/>
	<path class="st7" d="M447.8,398.4h2l0.4,2.4c0.8-1.7,2.4-2.6,5.1-2.6c4.1,0,6.1,2.4,6.1,6.6v9.4H459v-9c0-3.4-1.3-5-4.4-5
		c-3.2,0-4.5,1.6-4.5,5v9h-2.3V398.4z"/>
	<path class="st7" d="M465.3,406.3c0-5.6,2.2-8.2,6.9-8.2s6.9,2.5,6.9,8.2s-2.2,8.2-6.9,8.2S465.3,411.9,465.3,406.3 M476.8,406.3
		c0-4.4-1.4-6.1-4.5-6.1c-3.2,0-4.5,1.8-4.5,6.1s1.4,6.1,4.5,6.1C475.5,412.4,476.8,410.6,476.8,406.3 M470.2,396.1l3.5-4.2h2.7
		l-4.5,4.6L470.2,396.1z"/>
	<polygon class="st7" points="483.5,392.4 485.8,392 485.8,414.1 483.5,414.1 	"/>
	<path class="st7" d="M490,406.3c0-5.6,2.2-8.2,6.9-8.2s6.9,2.5,6.9,8.2s-2.2,8.2-6.9,8.2S490,411.9,490,406.3 M501.5,406.3
		c0-4.4-1.4-6.1-4.6-6.1c-3.2,0-4.5,1.8-4.5,6.1s1.4,6.1,4.5,6.1C500.2,412.4,501.5,410.6,501.5,406.3"/>
	<path class="st7" d="M513.2,420.3c-1.8,0-3.6-0.4-4.4-0.7l-0.4-2.2c0.8,0.4,2.6,1,4.5,1c3.8,0,5.6-1.6,5.6-5.7v-1
		c-0.5,1.3-2.1,2.6-5.2,2.6c-4.3,0-6.4-2.5-6.4-8c0-5.7,2-8.2,6.4-8.2c3.1,0,4.6,1.5,5.2,2.7l0.4-2.5h2v14.1
		C520.9,417.8,518.4,420.3,513.2,420.3L513.2,420.3z M518.6,406.3c0-4.4-1.4-6.1-4.6-6.1c-3.2,0-4.6,1.8-4.6,6.1c0,4.3,1.4,6,4.6,6
		C517.2,412.3,518.6,410.5,518.6,406.3"/>
	<path class="st7" d="M526.2,392.8h2.3v3.1h-2.3V392.8z M526.2,398.4h2.3v15.7h-2.3V398.4z"/>
	<path class="st7" d="M532.7,406.3c0-5.5,2.4-8.2,7.3-8.2c1.8,0,3.4,0.5,4,0.8l0.1,2.1c-0.8-0.4-2.3-0.8-3.9-0.8
		c-3.5,0-5.1,1.8-5.1,6.1c0,4.3,1.6,6.1,5,6.1c1.8,0,3.6-0.5,4.4-0.9l-0.4,2.2c-0.6,0.3-2.1,0.8-4.2,0.8
		C535.1,414.4,532.7,411.8,532.7,406.3"/>
	<path class="st7" d="M546.7,409.6c0-2.8,1.9-4.5,5.7-4.5h5.1v-0.9c0-2.7-1.1-4-4.5-4c-1.9,0-4,0.3-5,0.6l0.4-2.1
		c0.9-0.2,2.9-0.6,5-0.6c4.6,0,6.4,2.1,6.4,6v9.9h-2l-0.4-2.5c-0.8,1.7-2.4,2.8-5.4,2.8C548.5,414.4,546.7,412.5,546.7,409.6
		 M552.6,412.6c3,0,5-1.4,5-4.5v-1.3h-4.7c-2.6,0-3.7,1-3.7,2.8C549.1,411.5,550.2,412.6,552.6,412.6L552.6,412.6z"/>
	<path class="st7" d="M564.2,413.6l-0.4-2.1c1,0.5,3.2,1,5.6,1c3.1,0,4.2-1,4.2-2.5c0-1.4-0.7-2.1-2.9-2.5l-2.8-0.5
		c-3.1-0.6-4.3-2-4.3-4.4c0-2.7,1.9-4.4,6.3-4.4c2.1,0,4,0.4,4.9,0.8l0.1,2.1c-0.8-0.4-2.6-0.9-4.8-0.9c-3.1,0-4.2,1-4.2,2.4
		c0,1.4,0.8,2,2.8,2.5l2.7,0.5c3.2,0.6,4.4,1.9,4.4,4.4c0,2.8-1.9,4.6-6.3,4.6C567.3,414.5,565.2,414,564.2,413.6"/>
	<path class="st7" d="M600.3,392v22.1h-2l-0.4-2.5c-0.5,1.2-2.1,2.7-5.2,2.7c-4.3,0-6.4-2.5-6.4-8.2s2-8.2,6.4-8.2
		c3.1,0,4.6,1.5,5.2,2.8v-8.5L600.3,392z M598,406.3c0-4.4-1.4-6.1-4.6-6.1c-3.2,0-4.6,1.8-4.6,6.1s1.4,6.1,4.6,6.1
		C596.6,412.4,598,410.6,598,406.3"/>
	<path class="st7" d="M604.1,409.6c0-2.8,1.9-4.5,5.7-4.5h5.1v-0.9c0-2.7-1.1-4-4.5-4c-1.9,0-4,0.3-5,0.6l0.4-2.1
		c0.9-0.2,2.9-0.6,5-0.6c4.6,0,6.4,2.1,6.4,6v9.9h-2l-0.4-2.5c-0.8,1.7-2.4,2.8-5.4,2.8C605.9,414.4,604.1,412.5,604.1,409.6
		 M610,412.6c3,0,5-1.4,5-4.5v-1.3h-4.7c-2.6,0-3.7,1-3.7,2.8C606.5,411.5,607.6,412.6,610,412.6L610,412.6z"/>
	<polygon class="st7" points="630.4,392.3 644.6,392.3 644.8,394.5 632.9,394.5 632.9,402.2 643.5,402.2 643.5,404.4 632.9,404.4 
		632.9,414.1 630.4,414.1 	"/>
	<path class="st7" d="M645.8,409.6c0-2.8,1.9-4.5,5.7-4.5h5.1v-0.9c0-2.7-1.1-4-4.5-4c-1.9,0-4,0.3-5,0.6l0.4-2.1
		c0.9-0.2,2.9-0.6,5-0.6c4.6,0,6.4,2.1,6.4,6v9.9h-2l-0.4-2.5c-0.8,1.7-2.4,2.8-5.4,2.8C647.6,414.4,645.8,412.5,645.8,409.6
		 M651.6,412.6c3,0,5-1.4,5-4.5v-1.3h-4.7c-2.6,0-3.7,1-3.7,2.8C648.1,411.5,649.2,412.6,651.6,412.6L651.6,412.6z"/>
	<path class="st7" d="M687,404.6v9.5h-2.3v-9.1c0-3.3-1.2-4.9-3.9-4.9c-2.9,0-4.1,1.6-4.1,4.9v9.1h-2.3v-9.1c0-3.3-1.2-4.9-4-4.9
		c-2.9,0-4.1,1.6-4.1,4.9v9.1h-2.3v-15.7h2l0.4,2.4c0.8-1.7,2.2-2.6,4.7-2.6c2.5,0,4.2,1,5,3.1c1-2.1,2.7-3.1,5.3-3.1
		C685.1,398.1,687,400.5,687,404.6"/>
	<path class="st7" d="M690.9,406.2c0-5.2,2.5-8.1,7-8.1c4.3,0,6.9,2.4,6.9,8.1v0.8h-11.5c0.1,3.5,1.5,5.4,5.7,5.4
		c2,0,3.9-0.4,4.8-0.8l-0.4,2.1c-0.8,0.3-2.6,0.7-4.5,0.7C693.1,414.4,690.9,411.5,690.9,406.2 M702.6,405.3
		c-0.1-3.8-1.8-5.3-4.6-5.3c-2.9,0-4.6,1.8-4.7,5.3H702.6z"/>
	<path class="st7" d="M717.9,411.8l-0.4,2c-0.4,0.3-1.6,0.6-3,0.6c-3.3,0-5.2-1.8-5.2-5.8v-8.3h-2.8v-1.9h2.8v-3.1l2.3-0.5v3.7h6.1
		v1.9h-6.1v8.3c0,2.7,1.1,3.7,3.3,3.7C716.2,412.4,717.4,412,717.9,411.8"/>
	<path class="st7" d="M721.1,398.4h2l0.4,2.3c0.9-1.8,2.5-2.6,4.9-2.6c1.1,0,2,0.2,2.4,0.4l0.2,2.2c-0.4-0.2-1.5-0.6-2.8-0.6
		c-2.9,0-4.6,1.5-4.6,4.9v9.1h-2.3V398.4z"/>
	<path class="st7" d="M732.3,406.3c0-5.6,2.2-8.2,6.9-8.2c4.8,0,6.9,2.5,6.9,8.2s-2.2,8.2-6.9,8.2
		C734.5,414.4,732.3,411.9,732.3,406.3 M743.8,406.3c0-4.4-1.4-6.1-4.6-6.1c-3.2,0-4.5,1.8-4.5,6.1s1.4,6.1,4.5,6.1
		C742.5,412.4,743.8,410.6,743.8,406.3"/>
</g>
</svg>
